<svg width="83" height="32" viewBox="0 0 83 32" fill="none" xmlns="http://www.w3.org/2000/svg">
<path d="M83 14.3769H75.1185L75.0772 9.89014H83V14.3769Z" fill="#53AF32"/>
<path d="M31.9934 14.377H25.438V23.8329H31.9934V14.377Z" fill="#3F762F"/>
<path d="M31.5948 6.40276C31.3337 5.10705 30.8458 3.99053 30.145 3.04631C29.4441 2.10209 28.4958 1.37842 27.3071 0.861514C26.1183 0.344607 24.5997 0.0895996 22.7513 0.0895996C21.7206 0.0895996 20.6005 0.282578 19.3843 0.661644C18.1681 1.0476 17.0892 1.5714 16.1479 2.25372C15.4745 1.66789 14.6155 1.15787 13.5711 0.730564C12.5266 0.303255 11.1729 0.317039 9.50319 0.317039H0V23.8329H6.55534V5.91342C6.96763 5.85139 7.39366 5.80315 7.83343 5.76179C8.2732 5.72044 8.69923 5.69287 9.11152 5.69287C10.4308 5.69287 11.3653 6.13397 11.9082 7.01616C12.451 7.89834 12.719 9.40082 12.719 11.5167V23.8329H19.2744V11.1652C19.2744 10.3106 19.2469 9.51109 19.185 8.75986C19.1232 8.00862 18.9926 7.29873 18.7865 6.61641C19.1988 6.35452 19.7141 6.13397 20.3463 5.95477C20.9785 5.77558 21.4663 5.69287 21.8237 5.69287C23.143 5.69287 24.0775 6.13397 24.6203 7.01616C25.012 7.65023 25.2594 8.60823 25.3693 9.88327H31.9728C31.9315 8.62201 31.8078 7.45725 31.5948 6.39587V6.40276Z" fill="#3F762F"/>
<path d="M63.8837 18.712C63.2103 18.712 62.5438 18.6224 61.8841 18.4432C61.2244 18.2641 60.6885 18.0435 60.2762 17.7816V5.91342C60.5991 5.85139 61.0114 5.80314 61.5062 5.76179C62.0078 5.72044 62.5506 5.69287 63.1347 5.69287C64.9213 5.69287 66.2749 6.30627 67.182 7.52617C67.6767 8.1947 68.034 8.9804 68.2608 9.89016H75.0772C74.9467 8.93905 74.7268 8.03618 74.4245 7.19535C73.8816 5.69287 73.0983 4.42473 72.0676 3.37713C71.0368 2.32953 69.7794 1.52315 68.2814 0.951109C66.7834 0.379065 65.1343 0.317036 63.2309 0.317036H53.714V9.89016H53.6521C53.3704 6.96791 52.4565 4.67284 50.8967 3.02563C48.9864 1.01314 46.389 0 43.1045 0C41.6958 0 40.3215 0.2619 38.9885 0.792591C37.6554 1.32328 36.4735 2.10209 35.4428 3.12901C34.4121 4.16283 33.5875 5.44476 32.9554 6.98859C32.5981 7.87077 32.3438 8.83567 32.1858 9.88327H38.7411C38.8304 9.32501 38.9679 8.77364 39.1603 8.22916C39.3527 7.68469 39.6207 7.20913 39.9711 6.79561C40.3215 6.38208 40.7613 6.05126 41.2904 5.80314C41.8195 5.55503 42.4517 5.43097 43.1801 5.43097C43.9084 5.43097 44.5818 5.56192 45.0972 5.83071C45.6125 6.0995 46.0386 6.43722 46.3753 6.84385C46.712 7.25738 46.9594 7.72604 47.1243 8.25673C47.2823 8.78742 47.3785 9.3319 47.4129 9.89016H38.7411V14.3838H32.1239C32.2407 15.3556 32.44 16.286 32.7355 17.1751C33.2165 18.65 33.9655 19.9182 34.9824 20.9933C35.9925 22.0685 37.2706 22.9162 38.8098 23.5296C40.349 24.1499 42.1631 24.46 44.2451 24.46C45.0628 24.46 45.8874 24.4187 46.712 24.3291C47.5297 24.2395 48.3061 24.1292 49.0208 23.9983C49.7423 23.8673 50.3951 23.7088 50.9791 23.5365C51.5632 23.3573 52.0373 23.185 52.3878 23.0058L51.5082 17.6644C50.773 17.9884 49.8316 18.2572 48.6703 18.4777C47.5091 18.6983 46.3272 18.8085 45.1247 18.8085C43.2488 18.8085 41.7508 18.4088 40.6376 17.6162C39.5245 16.8236 38.8923 15.7484 38.748 14.3907H53.7071V32H60.2624V23.2608C60.9977 23.5848 61.7604 23.8329 62.5506 24.0121C63.3408 24.1913 64.1929 24.274 65.0999 24.274C66.7422 24.274 68.1921 23.9776 69.4564 23.3918C70.7208 22.8059 71.7721 21.9789 72.6241 20.9175C73.4762 19.8561 74.1221 18.5949 74.5619 17.12C74.8161 16.2585 75.0017 15.3418 75.1047 14.3769H68.3913C67.9516 17.2647 66.4399 18.712 63.8699 18.712H63.8837Z" fill="#3F762F"/>
<path d="M0 28.9468C0 28.6435 0.0412286 28.3747 0.130557 28.1473C0.219886 27.9198 0.329829 27.7269 0.474129 27.5752C0.618429 27.4236 0.776472 27.3064 0.962 27.2306C1.14753 27.1548 1.33306 27.1204 1.52546 27.1204C1.95149 27.1204 2.29506 27.2582 2.5493 27.5408C2.80354 27.8234 2.92723 28.2507 2.92723 28.8296C2.92723 28.8641 2.92723 28.8985 2.92723 28.9399C2.92723 28.9743 2.92723 29.0088 2.92036 29.0433H0.467257C0.481 29.4706 0.584072 29.8014 0.783343 30.0288C0.982615 30.2563 1.2987 30.3734 1.72473 30.3734C1.96523 30.3734 2.15076 30.3528 2.28819 30.3045C2.42561 30.2563 2.52869 30.2218 2.59053 30.1873L2.67299 30.5664C2.61114 30.6009 2.49433 30.6422 2.31567 30.6974C2.14389 30.7456 1.93774 30.7732 1.70411 30.7732C1.40177 30.7732 1.14066 30.7249 0.920772 30.6353C0.707757 30.5457 0.5291 30.4217 0.3848 30.2563C0.2405 30.0909 0.1443 29.8979 0.0824572 29.6773C0.0206143 29.4568 0 29.2087 0 28.9468ZM2.47371 28.6642C2.46684 28.2989 2.37751 28.0163 2.21947 27.8096C2.05456 27.6097 1.8278 27.5063 1.53233 27.5063C1.37429 27.5063 1.23686 27.5408 1.11317 27.6028C0.989486 27.6648 0.879543 27.7475 0.790214 27.8578C0.700886 27.9612 0.6253 28.0853 0.5772 28.23C0.5291 28.3747 0.494743 28.5195 0.487872 28.6711H2.48746L2.47371 28.6642Z" fill="#3F762F"/>
<path d="M3.90297 27.3202C4.03353 27.2857 4.20531 27.2444 4.43207 27.1961C4.65196 27.1479 4.91994 27.1272 5.2429 27.1272C5.51088 27.1272 5.73077 27.1685 5.90943 27.2444C6.08808 27.3202 6.22551 27.4304 6.33546 27.5752C6.43853 27.7199 6.51411 27.8853 6.56221 28.0852C6.61031 28.2851 6.63093 28.5056 6.63093 28.7399V30.6973H6.19116V28.8847C6.19116 28.6366 6.17741 28.4298 6.14306 28.2575C6.1087 28.0852 6.05373 27.9474 5.97127 27.8371C5.89568 27.7268 5.78574 27.651 5.66206 27.6028C5.5315 27.5545 5.37346 27.5338 5.18106 27.5338C4.97491 27.5338 4.79626 27.5476 4.64508 27.5683C4.49391 27.589 4.39771 27.6096 4.34961 27.6303V30.7042H3.90984V27.3271L3.90297 27.3202Z" fill="#3F762F"/>
<path d="M10.0117 30.2907C10.0117 30.2907 9.94296 30.3389 9.88799 30.3665C9.83302 30.3941 9.7643 30.4285 9.68872 30.4561C9.61313 30.4905 9.51693 30.5112 9.42073 30.5319C9.31766 30.5526 9.20772 30.5595 9.07716 30.5595C8.87789 30.5595 8.67862 30.525 8.49309 30.463C8.30756 30.4009 8.13577 30.2976 7.99834 30.1666C7.85404 30.0288 7.7441 29.8565 7.65477 29.6428C7.57232 29.4292 7.52422 29.1673 7.52422 28.864C7.52422 28.6159 7.56544 28.3885 7.64103 28.1748C7.71662 27.9611 7.82656 27.7819 7.97086 27.6234C8.11516 27.4649 8.28694 27.3477 8.49309 27.2581C8.69923 27.1685 8.92599 27.1272 9.1871 27.1272C9.51006 27.1272 9.77117 27.1479 9.96357 27.1892C10.156 27.2306 10.3209 27.2719 10.4446 27.3133V30.5043C10.4446 31.0281 10.3071 31.4003 10.0392 31.6208C9.77117 31.8414 9.36576 31.9586 8.81604 31.9586C8.58929 31.9586 8.39002 31.9448 8.20449 31.9103C8.02583 31.8759 7.86779 31.8345 7.73723 31.7931L7.82656 31.3934C7.9365 31.4416 8.0808 31.483 8.26633 31.5244C8.45186 31.5588 8.63739 31.5795 8.82979 31.5795C9.24207 31.5795 9.54442 31.4968 9.72994 31.3383C9.91547 31.1797 10.0117 30.9041 10.0117 30.5181V30.2907ZM10.0117 27.6234C9.93609 27.6028 9.83302 27.5821 9.7162 27.5614C9.59252 27.5407 9.42073 27.5338 9.19397 27.5338C9.00844 27.5338 8.83666 27.5683 8.69236 27.6303C8.54806 27.6992 8.42437 27.7888 8.3213 27.906C8.21823 28.0232 8.13577 28.1679 8.08767 28.3333C8.0327 28.4987 8.00522 28.6779 8.00522 28.8778C8.00522 29.1052 8.03957 29.3051 8.10142 29.4705C8.16326 29.6359 8.24572 29.7669 8.34879 29.8703C8.45186 29.9736 8.56867 30.0494 8.69923 30.0977C8.82979 30.1459 8.96034 30.1666 9.09777 30.1666C9.29704 30.1666 9.4757 30.139 9.64062 30.077C9.80553 30.0219 9.92922 29.953 10.0185 29.8771V27.6234H10.0117Z" fill="#3F762F"/>
<path d="M12.1487 26.1417C12.1487 26.2451 12.1143 26.3278 12.0525 26.3898C11.9906 26.4518 11.9151 26.4794 11.8257 26.4794C11.7364 26.4794 11.6608 26.4518 11.599 26.3898C11.5371 26.3278 11.5028 26.2451 11.5028 26.1417C11.5028 26.0383 11.5371 25.9556 11.599 25.8936C11.6608 25.8315 11.7364 25.804 11.8257 25.804C11.9151 25.804 11.9906 25.8315 12.0525 25.8936C12.1143 25.9556 12.1487 26.0383 12.1487 26.1417ZM12.0456 30.6973H11.6058V27.2031H12.0456V30.6973Z" fill="#3F762F"/>
<path d="M13.2069 27.3202C13.3375 27.2857 13.5092 27.2444 13.736 27.1961C13.9559 27.1479 14.2239 27.1272 14.5468 27.1272C14.8148 27.1272 15.0347 27.1685 15.2134 27.2444C15.392 27.3202 15.5294 27.4304 15.6394 27.5752C15.7425 27.7199 15.818 27.8853 15.8661 28.0852C15.9142 28.2851 15.9349 28.5056 15.9349 28.7399V30.6973H15.4951V28.8847C15.4951 28.6366 15.4813 28.4298 15.447 28.2575C15.4126 28.0852 15.3577 27.9474 15.2752 27.8371C15.1996 27.7268 15.0897 27.651 14.966 27.6028C14.8354 27.5545 14.6774 27.5338 14.485 27.5338C14.2788 27.5338 14.1002 27.5476 13.949 27.5683C13.7978 27.589 13.7016 27.6096 13.6535 27.6303V30.7042H13.2138V27.3271L13.2069 27.3202Z" fill="#3F762F"/>
<path d="M16.835 28.9468C16.835 28.6435 16.8762 28.3747 16.9656 28.1473C17.0549 27.9198 17.1648 27.7269 17.3091 27.5752C17.4534 27.4236 17.6115 27.3064 17.797 27.2306C17.9825 27.1548 18.1681 27.1204 18.3605 27.1204C18.7865 27.1204 19.1301 27.2582 19.3843 27.5408C19.6385 27.8234 19.7622 28.2507 19.7622 28.8296C19.7622 28.8641 19.7622 28.8985 19.7622 28.9399C19.7622 28.9743 19.7622 29.0088 19.7554 29.0433H17.3091C17.3229 29.4706 17.4259 29.8014 17.6252 30.0288C17.8245 30.2563 18.1406 30.3734 18.5666 30.3734C18.8071 30.3734 18.9926 30.3528 19.1301 30.3045C19.2675 30.2563 19.3706 30.2218 19.4324 30.1873L19.5149 30.5664C19.453 30.6009 19.3362 30.6422 19.1575 30.6974C18.9858 30.7456 18.7796 30.7732 18.546 30.7732C18.2436 30.7732 17.9825 30.7249 17.7626 30.6353C17.5496 30.5457 17.371 30.4217 17.2267 30.2563C17.0824 30.0909 16.9862 29.8979 16.9243 29.6773C16.8625 29.4568 16.8281 29.2087 16.8281 28.9468H16.835ZM19.3087 28.6642C19.3018 28.2989 19.2125 28.0163 19.0545 27.8096C18.8896 27.6097 18.6628 27.5063 18.3673 27.5063C18.2093 27.5063 18.0719 27.5408 17.9482 27.6028C17.8245 27.6648 17.7145 27.7475 17.6252 27.8578C17.5359 27.9612 17.4603 28.0853 17.4122 28.23C17.3641 28.3747 17.3297 28.5195 17.3229 28.6711H19.3225L19.3087 28.6642Z" fill="#3F762F"/>
<path d="M20.5318 28.9468C20.5318 28.6435 20.5731 28.3747 20.6624 28.1473C20.7517 27.9198 20.8617 27.7269 21.006 27.5752C21.1503 27.4236 21.3083 27.3064 21.4938 27.2306C21.6794 27.1548 21.8649 27.1204 22.0573 27.1204C22.4833 27.1204 22.8269 27.2582 23.0811 27.5408C23.3354 27.8234 23.4591 28.2507 23.4591 28.8296C23.4591 28.8641 23.4591 28.8985 23.4591 28.9399C23.4591 28.9743 23.4591 29.0088 23.4522 29.0433H21.006C21.0197 29.4706 21.1228 29.8014 21.322 30.0288C21.5213 30.2563 21.8374 30.3734 22.2634 30.3734C22.5039 30.3734 22.6895 30.3528 22.8269 30.3045C22.9643 30.2563 23.0674 30.2218 23.1292 30.1873L23.2117 30.5664C23.1498 30.6009 23.033 30.6422 22.8544 30.6974C22.6826 30.7456 22.4764 30.7732 22.2428 30.7732C21.9405 30.7732 21.6794 30.7249 21.4595 30.6353C21.2465 30.5457 21.0678 30.4217 20.9235 30.2563C20.7792 30.0909 20.683 29.8979 20.6212 29.6773C20.5593 29.4568 20.525 29.2087 20.525 28.9468H20.5318ZM23.0055 28.6642C22.9987 28.2989 22.9093 28.0163 22.7513 27.8096C22.5864 27.6097 22.3596 27.5063 22.0642 27.5063C21.9061 27.5063 21.7687 27.5408 21.645 27.6028C21.5213 27.6648 21.4114 27.7475 21.322 27.8578C21.2327 27.9612 21.1571 28.0853 21.109 28.23C21.0609 28.3747 21.0266 28.5195 21.0197 28.6711H23.0193L23.0055 28.6642Z" fill="#3F762F"/>
<path d="M25.6236 27.134C25.7679 27.134 25.9053 27.1478 26.029 27.1685C26.1595 27.1892 26.2489 27.2167 26.297 27.2374L26.2076 27.6165C26.1733 27.5958 26.0977 27.582 25.9877 27.5613C25.8778 27.5407 25.7335 27.5338 25.5548 27.5338C25.3693 27.5338 25.2113 27.5476 25.1013 27.5751C24.9845 27.6027 24.9089 27.6234 24.8746 27.644V30.711H24.4348V27.3753C24.5447 27.327 24.7028 27.2719 24.9021 27.2236C25.1013 27.1754 25.3418 27.1478 25.6236 27.1478V27.134Z" fill="#3F762F"/>
<path d="M27.4926 26.1417C27.4926 26.2451 27.4582 26.3278 27.3964 26.3898C27.3346 26.4518 27.259 26.4794 27.1696 26.4794C27.0803 26.4794 27.0047 26.4518 26.9429 26.3898C26.881 26.3278 26.8467 26.2451 26.8467 26.1417C26.8467 26.0383 26.881 25.9556 26.9429 25.8936C27.0047 25.8315 27.0803 25.804 27.1696 25.804C27.259 25.804 27.3346 25.8315 27.3964 25.8936C27.4582 25.9556 27.4926 26.0383 27.4926 26.1417ZM27.3964 30.6973H26.9566V27.2031H27.3964V30.6973Z" fill="#3F762F"/>
<path d="M28.5576 27.3202C28.6882 27.2857 28.86 27.2444 29.0867 27.1961C29.3066 27.1479 29.5746 27.1272 29.8976 27.1272C30.1656 27.1272 30.3854 27.1685 30.5641 27.2444C30.7428 27.3202 30.8802 27.4304 30.9901 27.5752C31.0932 27.7199 31.1688 27.8853 31.2169 28.0852C31.265 28.2851 31.2856 28.5056 31.2856 28.7399V30.6973H30.8458V28.8847C30.8458 28.6366 30.8321 28.4298 30.7977 28.2575C30.7634 28.0852 30.7084 27.9474 30.6259 27.8371C30.5504 27.7268 30.4404 27.651 30.3167 27.6028C30.1862 27.5545 30.0281 27.5338 29.8357 27.5338C29.6296 27.5338 29.4509 27.5476 29.2998 27.5683C29.1486 27.589 29.0524 27.6096 29.0043 27.6303V30.7042H28.5645V27.3271L28.5576 27.3202Z" fill="#3F762F"/>
<path d="M34.6664 30.2907C34.6664 30.2907 34.5976 30.3389 34.5427 30.3665C34.4877 30.3941 34.419 30.4285 34.3434 30.4561C34.2678 30.4905 34.1716 30.5112 34.0754 30.5319C33.9723 30.5526 33.8624 30.5595 33.7318 30.5595C33.5326 30.5595 33.3333 30.525 33.1478 30.463C32.9622 30.4009 32.7905 30.2976 32.653 30.1666C32.5087 30.0288 32.3988 29.8565 32.3095 29.6428C32.227 29.4292 32.1789 29.1673 32.1789 28.864C32.1789 28.6159 32.2201 28.3885 32.2957 28.1748C32.3713 27.9611 32.4812 27.7819 32.6255 27.6234C32.7698 27.4649 32.9416 27.3477 33.1478 27.2581C33.3539 27.1685 33.5807 27.1272 33.8418 27.1272C34.1647 27.1272 34.4259 27.1479 34.6183 27.1892C34.8107 27.2306 34.9756 27.2719 35.0993 27.3133V30.5043C35.0993 31.0281 34.9618 31.4003 34.6938 31.6208C34.4259 31.8414 34.0204 31.9586 33.4707 31.9586C33.244 31.9586 33.0447 31.9448 32.8592 31.9103C32.6805 31.8759 32.5225 31.8345 32.3919 31.7931L32.4812 31.3934C32.5912 31.4416 32.7355 31.483 32.921 31.5244C33.1065 31.5588 33.2921 31.5795 33.4845 31.5795C33.8967 31.5795 34.1991 31.4968 34.3846 31.3383C34.5702 31.1797 34.6664 30.9041 34.6664 30.5181V30.2907ZM34.6595 27.6234C34.5839 27.6028 34.4808 27.5821 34.364 27.5614C34.2403 27.5407 34.0685 27.5338 33.8418 27.5338C33.6562 27.5338 33.4845 27.5683 33.3402 27.6303C33.1959 27.6992 33.0722 27.7888 32.9691 27.906C32.866 28.0232 32.7836 28.1679 32.7355 28.3333C32.6805 28.4987 32.653 28.6779 32.653 28.8778C32.653 29.1052 32.6874 29.3051 32.7492 29.4705C32.8111 29.6359 32.8935 29.7669 32.9966 29.8703C33.0997 29.9736 33.2165 30.0494 33.347 30.0977C33.4776 30.1459 33.6082 30.1666 33.7456 30.1666C33.9449 30.1666 34.1235 30.139 34.2884 30.077C34.4533 30.0219 34.577 29.953 34.6664 29.8771V27.6234H34.6595Z" fill="#3F762F"/>
</svg>
