<svg width="24" height="24" viewBox="0 0 24 24" fill="none" xmlns="http://www.w3.org/2000/svg">
<path d="M12 13C12.7879 13 13.5681 12.8448 14.2961 12.5433C15.0241 12.2417 15.6855 11.7998 16.2426 11.2426C16.7998 10.6855 17.2417 10.0241 17.5433 9.2961C17.8448 8.56815 18 7.78793 18 7C18 6.21207 17.8448 5.43185 17.5433 4.7039C17.2417 3.97595 16.7998 3.31451 16.2426 2.75736C15.6855 2.20021 15.0241 1.75825 14.2961 1.45672C13.5681 1.15519 12.7879 1 12 1C10.4087 1 8.88258 1.63214 7.75736 2.75736C6.63214 3.88258 6 5.4087 6 7C6 8.5913 6.63214 10.1174 7.75736 11.2426C8.88258 12.3679 10.4087 13 12 13ZM15 18C14.9998 17.4931 15.1281 16.9945 15.3728 16.5506C15.6175 16.1067 15.9707 15.7321 16.3994 15.4617C16.8281 15.1913 17.3184 15.0339 17.8244 15.0042C18.3304 14.9745 18.8356 15.0735 19.293 15.292L15.293 19.293C15.1001 18.8892 15 18.4475 15 18ZM16.707 20.708L20.707 16.707C20.9749 17.267 21.0625 17.8962 20.9578 18.5081C20.853 19.1199 20.5611 19.6842 20.1221 20.1231C19.6832 20.5621 19.1189 20.854 18.5071 20.9588C17.8952 21.0635 17.266 20.9759 16.706 20.708M18 13C16.6739 13 15.4021 13.5268 14.4645 14.4645C13.5268 15.4021 13 16.6739 13 18C13 19.3261 13.5268 20.5979 14.4645 21.5355C15.4021 22.4732 16.6739 23 18 23C19.3261 23 20.5979 22.4732 21.5355 21.5355C22.4732 20.5979 23 19.3261 23 18C23 16.6739 22.4732 15.4021 21.5355 14.4645C20.5979 13.5268 19.3261 13 18 13ZM12 14C12.084 14 12.168 14.0013 12.252 14.004C11.4349 15.1762 10.9979 16.5712 11 18C11 19.487 11.464 20.866 12.255 22H4C4 19.8783 4.84285 17.8434 6.34315 16.3431C7.84344 14.8429 9.87827 14 12 14Z" fill="black"/>
<path d="M12 13C12.7879 13 13.5681 12.8448 14.2961 12.5433C15.0241 12.2417 15.6855 11.7998 16.2426 11.2426C16.7998 10.6855 17.2417 10.0241 17.5433 9.2961C17.8448 8.56815 18 7.78793 18 7C18 6.21207 17.8448 5.43185 17.5433 4.7039C17.2417 3.97595 16.7998 3.31451 16.2426 2.75736C15.6855 2.20021 15.0241 1.75825 14.2961 1.45672C13.5681 1.15519 12.7879 1 12 1C10.4087 1 8.88258 1.63214 7.75736 2.75736C6.63214 3.88258 6 5.4087 6 7C6 8.5913 6.63214 10.1174 7.75736 11.2426C8.88258 12.3679 10.4087 13 12 13ZM15 18C14.9998 17.4931 15.1281 16.9945 15.3728 16.5506C15.6175 16.1067 15.9707 15.7321 16.3994 15.4617C16.8281 15.1913 17.3184 15.0339 17.8244 15.0042C18.3304 14.9745 18.8356 15.0735 19.293 15.292L15.293 19.293C15.1001 18.8892 15 18.4475 15 18ZM16.707 20.708L20.707 16.707C20.9749 17.267 21.0625 17.8962 20.9578 18.5081C20.853 19.1199 20.5611 19.6842 20.1221 20.1231C19.6832 20.5621 19.1189 20.854 18.5071 20.9588C17.8952 21.0635 17.266 20.9759 16.706 20.708M18 13C16.6739 13 15.4021 13.5268 14.4645 14.4645C13.5268 15.4021 13 16.6739 13 18C13 19.3261 13.5268 20.5979 14.4645 21.5355C15.4021 22.4732 16.6739 23 18 23C19.3261 23 20.5979 22.4732 21.5355 21.5355C22.4732 20.5979 23 19.3261 23 18C23 16.6739 22.4732 15.4021 21.5355 14.4645C20.5979 13.5268 19.3261 13 18 13ZM12 14C12.084 14 12.168 14.0013 12.252 14.004C11.4349 15.1762 10.9979 16.5712 11 18C11 19.487 11.464 20.866 12.255 22H4C4 19.8783 4.84285 17.8434 6.34315 16.3431C7.84344 14.8429 9.87827 14 12 14Z" fill="#F2F8F0"/>
</svg>
