<svg width="80" height="81" viewBox="0 0 80 81" fill="none" xmlns="http://www.w3.org/2000/svg">
<path d="M64.8898 29.3134L65.7098 27.4267C67.1515 24.0891 69.7918 21.4131 73.1098 19.9267L75.6398 18.7967C75.9467 18.6555 76.2067 18.4293 76.389 18.1448C76.5713 17.8603 76.6681 17.5295 76.6681 17.1917C76.6681 16.8538 76.5713 16.5231 76.389 16.2386C76.2067 15.9541 75.9467 15.7279 75.6398 15.5867L73.2498 14.5234C69.8484 12.9946 67.1629 10.2196 65.7464 6.77002L64.9031 4.73336C64.7792 4.41787 64.5632 4.14702 64.2831 3.95611C64.0031 3.7652 63.672 3.66309 63.3331 3.66309C62.9942 3.66309 62.6631 3.7652 62.383 3.95611C62.103 4.14702 61.887 4.41787 61.7631 4.73336L60.9198 6.76669C59.5048 10.2169 56.8205 12.9931 53.4198 14.5234L51.0264 15.59C50.7204 15.7316 50.4613 15.9578 50.2798 16.2419C50.0982 16.526 50.0017 16.8562 50.0017 17.1934C50.0017 17.5305 50.0982 17.8607 50.2798 18.1448C50.4613 18.4289 50.7204 18.6551 51.0264 18.7967L53.5598 19.9234C56.8771 21.4112 59.5162 24.0884 60.9564 27.4267L61.7764 29.3134C62.3764 30.6934 64.2864 30.6934 64.8898 29.3134ZM16.6664 20.3334C16.1489 20.3334 15.6386 20.4538 15.1757 20.6853C14.7129 20.9167 14.3103 21.2527 13.9998 21.6667L3.99977 35C3.53652 35.6179 3.3022 36.3776 3.33686 37.1491C3.37151 37.9206 3.67298 38.6561 4.18977 39.23L34.1898 72.5634C34.5023 72.9103 34.8843 73.1878 35.311 73.3777C35.7376 73.5676 36.1994 73.6657 36.6664 73.6657C37.1334 73.6657 37.5952 73.5676 38.0219 73.3777C38.4485 73.1878 38.8305 72.9103 39.1431 72.5634L69.1431 39.23L64.1898 34.77L36.6664 65.35L10.9764 36.8067L18.3331 27H46.6664V20.3334H16.6664Z" fill="#3F762F"/>
</svg>
