<svg width="80" height="81" viewBox="0 0 80 81" fill="none" xmlns="http://www.w3.org/2000/svg">
<path d="M40 3.66666C47.9565 3.66666 55.5871 6.82737 61.2132 12.4535C66.8393 18.0795 70 25.7102 70 33.6667V47C70.0015 51.8278 68.8379 56.5846 66.6079 60.8665C64.378 65.1484 61.1476 68.8288 57.1911 71.5953C53.2346 74.3618 48.6689 76.1325 43.8817 76.7572C39.0945 77.3818 34.2273 76.8419 29.6934 75.1833C30.12 74.5944 30.53 73.9922 30.9234 73.3767L31.49 72.4433C34.7249 67.0515 36.5051 60.9126 36.6567 54.6267L36.6667 53.6667V30.3333H43.3334V53.6667C43.3374 59.3894 42.2079 65.0562 40.01 70.34C42.5849 70.3382 45.1416 69.9101 47.5767 69.0733C49.05 64.54 49.8867 59.7167 49.99 54.7133L50 53.6667V43.6633H56.6667V53.6667C56.67 57.2289 56.3374 60.7835 55.6734 64.2833C57.9881 62.1897 59.858 59.6517 61.1717 56.8205C62.4854 53.9893 63.216 50.9227 63.32 47.8033L63.3334 47V33.6667C63.3334 29.3362 62.1283 25.0912 59.8529 21.4067C57.5776 17.7222 54.3218 14.7435 50.4499 12.8041C46.578 10.8647 42.2428 10.0411 37.9295 10.4254C33.6161 10.8096 29.4948 12.3867 26.0267 14.98L21.2767 10.2267C26.588 5.97046 33.1938 3.65603 40 3.66666ZM23.3334 33.6667C23.3334 29.2464 25.0893 25.0072 28.2149 21.8815C31.3405 18.7559 35.5798 17 40 17C44.4203 17 48.6595 18.7559 51.7851 21.8815C54.9107 25.0072 56.6667 29.2464 56.6667 33.6667V37H50V33.6667C50.0025 31.0636 48.99 28.5622 47.1775 26.6939C45.365 24.8256 42.8954 23.7377 40.2935 23.6613C37.6916 23.5849 35.1624 24.5261 33.2435 26.2849C31.3245 28.0436 30.1669 30.4813 30.0167 33.08L30 33.6667V53.6667C30 58.89 28.6667 63.8 26.32 68.0767L26.24 68.21C25.4734 69.5922 24.6045 70.9022 23.6334 72.14C22.1672 71.1845 20.7875 70.1026 19.51 68.9067L18.4834 67.9067C13.0339 62.313 9.98908 54.8093 10 47V33.6667C10 26.5833 12.4534 20.0733 16.56 14.9433L21.3134 19.6933C18.4552 23.5045 16.8377 28.1021 16.68 32.8633L16.6667 33.6667V47C16.6589 52.3648 18.508 57.567 21.9 61.7233C22.7613 59.3979 23.2408 56.9485 23.32 54.47L23.3334 53.6667V33.6667Z" fill="#3F762F"/>
</svg>
