<svg width="80" height="81" viewBox="0 0 80 81" fill="none" xmlns="http://www.w3.org/2000/svg">
<path d="M39.5365 8.30008C41.1494 7.22528 43.0399 6.64236 44.978 6.62224C46.9161 6.60212 48.8183 7.14566 50.4532 8.18674L64.2998 17.0001H69.9998C70.8839 17.0001 71.7317 17.3513 72.3569 17.9764C72.982 18.6015 73.3332 19.4494 73.3332 20.3334V50.3334C73.3332 51.2175 72.982 52.0653 72.3569 52.6904C71.7317 53.3155 70.8839 53.6667 69.9998 53.6667H64.9332C65.0401 55.2899 64.6967 56.9111 63.9409 58.3515C63.1851 59.7919 62.0462 60.9957 60.6498 61.8301L43.6732 72.0167C42.63 72.6421 41.4357 72.9702 40.2195 72.9655C39.0032 72.9608 37.8114 72.6235 36.7732 71.9901C35.6037 73.0234 34.1088 73.6136 32.5489 73.6581C30.989 73.7026 29.4629 73.1984 28.2365 72.2334L11.1032 58.7701C9.90552 57.8303 9.06557 56.509 8.72295 55.0257C8.38033 53.5424 8.55567 51.9866 9.21984 50.6167C8.42386 49.9927 7.78032 49.1957 7.33795 48.2861C6.89557 47.3765 6.66596 46.3782 6.6665 45.3667V20.3334C6.6665 19.4494 7.01769 18.6015 7.64282 17.9764C8.26794 17.3513 9.11578 17.0001 9.99984 17.0001H26.4898L39.5365 8.30008ZM13.9098 45.8201L16.2165 43.8034C18.1878 42.0791 20.7569 41.1969 23.3716 41.3465C25.9864 41.4961 28.4381 42.6655 30.1998 44.6034L39.2065 54.5101C40.6189 56.0636 41.5065 58.0224 41.7434 60.1086C41.9803 62.1948 41.5546 64.3027 40.5265 66.1334L57.2232 56.1167C57.6584 55.8528 57.9887 55.4461 58.1577 54.9659C58.3266 54.4857 58.3239 53.9618 58.1498 53.4834L43.3932 32.8234C42.9891 32.2572 42.4179 31.8316 41.7598 31.6062C41.1017 31.3809 40.3895 31.3671 39.7232 31.5667L31.4365 34.0501C29.7072 34.5688 27.8697 34.6096 26.1191 34.1683C24.3684 33.7269 22.7699 32.8199 21.4932 31.5434L20.5165 30.5701C19.6307 29.6844 19.0123 28.567 18.7323 27.3461C18.4522 26.1251 18.5219 24.8499 18.9332 23.6667H13.3332V45.3667L13.9098 45.8201ZM46.8765 13.8134C46.3308 13.4658 45.6958 13.2845 45.0489 13.2916C44.4019 13.2987 43.7711 13.4939 43.2332 13.8534L25.2332 25.8534L26.2065 26.8301C26.6325 27.2556 27.1659 27.5577 27.7498 27.7045C28.3338 27.8512 28.9466 27.837 29.5232 27.6634L37.8065 25.1801C39.8053 24.5807 41.9414 24.6216 43.9158 25.2971C45.8901 25.9725 47.6037 27.2487 48.8165 28.9467L61.7165 47.0001H66.6665V23.6667H64.3032C63.0349 23.6666 61.793 23.3046 60.7232 22.6234L46.8765 13.8134ZM20.6032 48.8167L15.2165 53.5301L32.3498 66.9934L34.6998 62.8867C35.049 62.2751 35.1955 61.5686 35.1182 60.8685C35.041 60.1685 34.744 59.5109 34.2698 58.9901L25.2665 49.0834C24.6793 48.4378 23.8623 48.0482 22.991 47.9983C22.1197 47.9484 21.2602 48.2423 20.6032 48.8167Z" fill="#3F762F"/>
</svg>
