<svg width="24" height="24" viewBox="0 0 24 24" fill="none" xmlns="http://www.w3.org/2000/svg">
<path d="M8 7C8 5.93913 8.42143 4.92172 9.17157 4.17157C9.92172 3.42143 10.9391 3 12 3C13.0609 3 14.0783 3.42143 14.8284 4.17157C15.5786 4.92172 16 5.93913 16 7C16 8.06087 15.5786 9.07828 14.8284 9.82843C14.0783 10.5786 13.0609 11 12 11C10.9391 11 9.92172 10.5786 9.17157 9.82843C8.42143 9.07828 8 8.06087 8 7ZM12 1C11.2121 1 10.4319 1.15519 9.7039 1.45672C8.97595 1.75825 8.31451 2.20021 7.75736 2.75736C7.20021 3.31451 6.75825 3.97595 6.45672 4.7039C6.15519 5.43185 6 6.21207 6 7C6 7.78793 6.15519 8.56815 6.45672 9.2961C6.75825 10.0241 7.20021 10.6855 7.75736 11.2426C8.31451 11.7998 8.97595 12.2417 9.7039 12.5433C10.4319 12.8448 11.2121 13 12 13C13.5913 13 15.1174 12.3679 16.2426 11.2426C17.3679 10.1174 18 8.5913 18 7C18 5.4087 17.3679 3.88258 16.2426 2.75736C15.1174 1.63214 13.5913 1 12 1ZM15 18C14.9998 17.4931 15.1281 16.9945 15.3728 16.5506C15.6175 16.1067 15.9707 15.7321 16.3994 15.4617C16.8281 15.1913 17.3184 15.0339 17.8244 15.0042C18.3304 14.9745 18.8356 15.0735 19.293 15.292L15.293 19.293C15.1001 18.8892 15 18.4475 15 18ZM16.707 20.708L20.707 16.707C20.9749 17.267 21.0625 17.8962 20.9578 18.5081C20.853 19.1199 20.5611 19.6842 20.1221 20.1231C19.6832 20.5621 19.1189 20.854 18.5071 20.9588C17.8952 21.0635 17.266 20.9759 16.706 20.708M18 13C16.6739 13 15.4021 13.5268 14.4645 14.4645C13.5268 15.4021 13 16.6739 13 18C13 19.3261 13.5268 20.5979 14.4645 21.5355C15.4021 22.4732 16.6739 23 18 23C19.3261 23 20.5979 22.4732 21.5355 21.5355C22.4732 20.5979 23 19.3261 23 18C23 16.6739 22.4732 15.4021 21.5355 14.4645C20.5979 13.5268 19.3261 13 18 13ZM12 14C12.084 14 12.168 14.0013 12.252 14.004C11.8186 14.6267 11.4893 15.3157 11.277 16.044C9.82164 16.2207 8.48132 16.924 7.5091 18.0214C6.53689 19.1187 6.00007 20.534 6 22H4C4 19.8783 4.84285 17.8434 6.34315 16.3431C7.84344 14.8429 9.87827 14 12 14Z" fill="#F2F8F0"/>
</svg>
