<svg width="24" height="24" viewBox="0 0 24 24" fill="none" xmlns="http://www.w3.org/2000/svg">
<path d="M17.841 15.659L18.017 15.836L18.195 15.659C18.4039 15.4501 18.652 15.2843 18.925 15.1713C19.1979 15.0582 19.4905 15 19.786 15C20.0815 15 20.3741 15.0582 20.647 15.1713C20.92 15.2843 21.1681 15.4501 21.377 15.659C21.5859 15.8679 21.7517 16.116 21.8647 16.389C21.9778 16.6619 22.036 16.9545 22.036 17.25C22.036 17.5455 21.9778 17.8381 21.8647 18.111C21.7517 18.384 21.5859 18.6321 21.377 18.841L18.017 22.2L14.659 18.841C14.4501 18.6321 14.2843 18.384 14.1713 18.111C14.0582 17.8381 14 17.5455 14 17.25C14 16.9545 14.0582 16.6619 14.1713 16.389C14.2843 16.116 14.4501 15.8679 14.659 15.659C14.8679 15.4501 15.116 15.2843 15.389 15.1713C15.6619 15.0582 15.9545 15 16.25 15C16.5455 15 16.8381 15.0582 17.111 15.1713C17.384 15.2843 17.6321 15.4501 17.841 15.659ZM12 14V16C10.4087 16 8.88258 16.6321 7.75736 17.7574C6.63214 18.8826 6 20.4087 6 22H4C4.00002 19.9216 4.80894 17.9247 6.25547 16.4323C7.702 14.9398 9.67259 14.069 11.75 14.004L12 14ZM12 1C15.315 1 18 3.685 18 7C18.0001 8.55238 17.3984 10.0444 16.3215 11.1625C15.2446 12.2806 13.7763 12.9378 12.225 12.996L12 13C8.685 13 6 10.315 6 7C5.99994 5.44762 6.60157 3.95564 7.67847 2.83753C8.75536 1.71942 10.2237 1.06221 11.775 1.004L12 1ZM12 3C9.79 3 8 4.79 8 7C8 9.21 9.79 11 12 11C14.21 11 16 9.21 16 7C16 4.79 14.21 3 12 3Z" fill="#F2F8F0"/>
</svg>
