<svg width="104" height="40" viewBox="0 0 104 40" fill="none" xmlns="http://www.w3.org/2000/svg">
<g clip-path="url(#clip0_116_151)">
<path d="M104 17.9711H94.1244L94.0727 12.3627H104V17.9711Z" fill="#53AF32"/>
<path d="M40.0881 17.9711H31.8742V29.7911H40.0881V17.9711Z" fill="#3F762F"/>
<path d="M39.5887 8.00345C39.2615 6.3838 38.6502 4.98815 37.772 3.80788C36.8938 2.62761 35.7056 1.72302 34.2161 1.07689C32.7266 0.430755 30.8237 0.111996 28.5077 0.111996C27.2162 0.111996 25.8127 0.353219 24.2888 0.827051C22.7648 1.3095 21.413 1.96425 20.2335 2.81714C19.3897 2.08486 18.3134 1.44734 17.0047 0.913202C15.696 0.379064 13.9998 0.396295 11.9076 0.396295H0V29.7911H8.21393V7.39177C8.73052 7.31424 9.26434 7.25393 9.81538 7.20224C10.3664 7.15055 10.9002 7.11609 11.4168 7.11609C13.07 7.11609 14.2409 7.66746 14.9211 8.77019C15.6013 9.87293 15.9371 11.751 15.9371 14.3959V29.7911H24.151V13.9565C24.151 12.8882 24.1166 11.8889 24.0391 10.9498C23.9616 10.0108 23.798 9.12341 23.5397 8.27051C24.0563 7.94314 24.702 7.66746 25.4942 7.44346C26.2863 7.21947 26.8976 7.11609 27.3453 7.11609C28.9984 7.11609 30.1694 7.66746 30.8496 8.77019C31.3403 9.56278 31.6503 10.7603 31.7881 12.3541H40.0623C40.0106 10.7775 39.8556 9.32156 39.5887 7.99483V8.00345Z" fill="#3F762F"/>
<path d="M80.047 23.39C79.2032 23.39 78.3681 23.2781 77.5415 23.0541C76.715 22.8301 76.0434 22.5544 75.5268 22.227V7.39177C75.9315 7.31424 76.4481 7.25393 77.068 7.20224C77.6965 7.15055 78.3767 7.11609 79.1085 7.11609C81.3471 7.11609 83.0433 7.88283 84.1798 9.40771C84.7997 10.2434 85.2475 11.2255 85.5316 12.3627H94.0727C93.9091 11.1738 93.6336 10.0452 93.2547 8.99418C92.5745 7.11609 91.593 5.53091 90.3015 4.22141C89.01 2.91191 87.4344 1.90394 85.5574 1.18889C83.6804 0.473832 81.614 0.396295 79.2291 0.396295H67.3042V12.3627H67.2268C66.8738 8.70989 65.7286 5.84105 63.7742 3.78204C61.3806 1.26642 58.126 0 54.0104 0C52.2454 0 50.5234 0.327375 48.8531 0.990739C47.1827 1.6541 45.7018 2.62761 44.4103 3.91126C43.1188 5.20353 42.0856 6.80594 41.2935 8.73573C40.8458 9.83847 40.5272 11.0446 40.3292 12.3541H48.5431C48.655 11.6563 48.8272 10.967 49.0683 10.2865C49.3094 9.60586 49.6452 9.01141 50.0843 8.49451C50.5234 7.9776 51.0744 7.56407 51.7374 7.25393C52.4004 6.94379 53.1925 6.78871 54.1051 6.78871C55.0178 6.78871 55.8616 6.9524 56.5073 7.28839C57.1531 7.62438 57.6869 8.04652 58.1088 8.55481C58.5307 9.07172 58.8406 9.65755 59.0473 10.3209C59.2453 10.9843 59.3658 11.6649 59.4089 12.3627H48.5431V17.9798H40.2517C40.398 19.1945 40.6477 20.3575 41.018 21.4689C41.6207 23.3125 42.5592 24.8977 43.8334 26.2417C45.0991 27.5856 46.7006 28.6453 48.6292 29.412C50.5578 30.1874 52.8309 30.5751 55.4397 30.5751C56.4643 30.5751 57.4975 30.5234 58.5307 30.4114C59.5553 30.2994 60.5282 30.1615 61.4236 29.9978C62.3277 29.8342 63.1456 29.636 63.8775 29.4206C64.6093 29.1966 65.2034 28.9813 65.6425 28.7573L64.5404 22.0806C63.6192 22.4855 62.4396 22.8215 60.9845 23.0971C59.5294 23.3728 58.0485 23.5107 56.5418 23.5107C54.1912 23.5107 52.3143 23.011 50.9194 22.0202C49.5246 21.0295 48.7325 19.6855 48.5517 17.9884H67.2956V40H75.5096V29.076C76.4308 29.4809 77.3865 29.7911 78.3767 30.0151C79.3668 30.2391 80.4345 30.3425 81.571 30.3425C83.6288 30.3425 85.4455 29.972 87.0297 29.2397C88.614 28.5074 89.9313 27.4736 90.9989 26.1469C92.0666 24.8202 92.8759 23.2436 93.4269 21.4C93.7455 20.3231 93.978 19.1773 94.1071 17.9711H85.6952C85.1441 21.5809 83.2499 23.39 80.0298 23.39H80.047Z" fill="#3F762F"/>
<path d="M0 36.1835C0 35.8044 0.0516599 35.4684 0.16359 35.1841C0.275519 34.8998 0.413279 34.6586 0.594089 34.4691C0.774899 34.2796 0.972928 34.1331 1.2054 34.0383C1.43787 33.9436 1.67034 33.9005 1.91142 33.9005C2.44524 33.9005 2.87573 34.0728 3.1943 34.426C3.51287 34.7792 3.66785 35.3134 3.66785 36.037C3.66785 36.0801 3.66785 36.1232 3.66785 36.1749C3.66785 36.218 3.66785 36.261 3.65924 36.3041H0.585479C0.602699 36.8382 0.731849 37.2518 0.981538 37.5361C1.23123 37.8204 1.62729 37.9668 2.16111 37.9668C2.46246 37.9668 2.69493 37.941 2.86712 37.8807C3.03932 37.8204 3.16847 37.7773 3.24596 37.7342L3.34928 38.2081C3.27179 38.2511 3.12542 38.3028 2.90156 38.3717C2.68632 38.432 2.42802 38.4665 2.13528 38.4665C1.75644 38.4665 1.42926 38.4062 1.15374 38.2942C0.886828 38.1822 0.662969 38.0271 0.482159 37.8204C0.301349 37.6136 0.18081 37.3724 0.10332 37.0967C0.0258299 36.821 0 36.5109 0 36.1835ZM3.09959 35.8303C3.09098 35.3737 2.97905 35.0205 2.78102 34.762C2.57439 34.5122 2.29026 34.3829 1.92003 34.3829C1.722 34.3829 1.5498 34.426 1.39482 34.5036C1.23984 34.5811 1.10208 34.6845 0.990148 34.8223C0.878218 34.9515 0.783509 35.1066 0.723239 35.2875C0.662969 35.4684 0.619919 35.6494 0.611309 35.8389H3.11681L3.09959 35.8303Z" fill="#3F762F"/>
<path d="M4.89047 34.1503C5.05406 34.1073 5.26931 34.0556 5.55344 33.9953C5.82896 33.935 6.16475 33.9091 6.56942 33.9091C6.90521 33.9091 7.18073 33.9608 7.40459 34.0556C7.62845 34.1503 7.80065 34.2882 7.93841 34.4691C8.06756 34.65 8.16227 34.8568 8.22254 35.1066C8.28281 35.3565 8.30864 35.6321 8.30864 35.925V38.3717H7.7576V36.106C7.7576 35.7958 7.74038 35.5374 7.69733 35.322C7.65428 35.1066 7.5854 34.9343 7.48208 34.7965C7.38737 34.6586 7.24961 34.5639 7.09463 34.5036C6.93104 34.4432 6.73301 34.4174 6.49193 34.4174C6.23363 34.4174 6.00977 34.4346 5.82035 34.4605C5.63093 34.4863 5.51039 34.5122 5.45012 34.538V38.3804H4.89908V34.159L4.89047 34.1503Z" fill="#3F762F"/>
<path d="M12.5447 37.8635C12.5447 37.8635 12.4586 37.9238 12.3898 37.9582C12.3209 37.9927 12.2348 38.0358 12.1401 38.0702C12.0454 38.1133 11.9248 38.1391 11.8043 38.165C11.6751 38.1908 11.5374 38.1994 11.3738 38.1994C11.1241 38.1994 10.8744 38.1564 10.6419 38.0788C10.4095 38.0013 10.1942 37.8721 10.022 37.7084C9.84121 37.5361 9.70345 37.3207 9.59152 37.0536C9.4882 36.7866 9.42793 36.4592 9.42793 36.0801C9.42793 35.77 9.47959 35.4857 9.5743 35.2186C9.66901 34.9515 9.80677 34.7275 9.98758 34.5294C10.1684 34.3313 10.3836 34.1848 10.6419 34.0728C10.9002 33.9608 11.1844 33.9091 11.5115 33.9091C11.9162 33.9091 12.2434 33.935 12.4845 33.9866C12.7256 34.0383 12.9322 34.09 13.0872 34.1417V38.1305C13.0872 38.7853 12.915 39.2505 12.5792 39.5262C12.2434 39.8019 11.7354 39.9483 11.0466 39.9483C10.7625 39.9483 10.5128 39.9311 10.2803 39.888C10.0565 39.8449 9.85843 39.7932 9.69484 39.7415L9.80677 39.2419C9.94453 39.3022 10.1253 39.3539 10.3578 39.4056C10.5903 39.4486 10.8228 39.4745 11.0638 39.4745C11.5804 39.4745 11.9593 39.3711 12.1917 39.1729C12.4242 38.9748 12.5447 38.6302 12.5447 38.1477V37.8635ZM12.5447 34.5294C12.45 34.5036 12.3209 34.4777 12.1745 34.4519C12.0195 34.426 11.8043 34.4174 11.5202 34.4174C11.2877 34.4174 11.0724 34.4605 10.8916 34.538C10.7108 34.6242 10.5558 34.7362 10.4267 34.8826C10.2975 35.0291 10.1942 35.21 10.134 35.4168C10.0651 35.6235 10.0306 35.8475 10.0306 36.0974C10.0306 36.3817 10.0737 36.6315 10.1512 36.8382C10.2287 37.045 10.332 37.2087 10.4611 37.3379C10.5903 37.4672 10.7367 37.5619 10.9002 37.6222C11.0638 37.6825 11.2274 37.7084 11.3996 37.7084C11.6493 37.7084 11.8732 37.6739 12.0798 37.5964C12.2864 37.5275 12.4414 37.4413 12.5534 37.3465V34.5294H12.5447Z" fill="#3F762F"/>
<path d="M15.2225 32.6771C15.2225 32.8064 15.1794 32.9098 15.1019 32.9873C15.0244 33.0648 14.9297 33.0993 14.8178 33.0993C14.7059 33.0993 14.6111 33.0648 14.5337 32.9873C14.4562 32.9098 14.4131 32.8064 14.4131 32.6771C14.4131 32.5479 14.4562 32.4445 14.5337 32.367C14.6111 32.2895 14.7059 32.255 14.8178 32.255C14.9297 32.255 15.0244 32.2895 15.1019 32.367C15.1794 32.4445 15.2225 32.5479 15.2225 32.6771ZM15.0933 38.3717H14.5423V34.0039H15.0933V38.3717Z" fill="#3F762F"/>
<path d="M16.5484 34.1503C16.712 34.1073 16.9272 34.0556 17.2114 33.9953C17.4869 33.935 17.8227 33.9091 18.2273 33.9091C18.5631 33.9091 18.8386 33.9608 19.0625 34.0556C19.2864 34.1503 19.4586 34.2882 19.5963 34.4691C19.7255 34.65 19.8202 34.8568 19.8805 35.1066C19.9407 35.3565 19.9666 35.6321 19.9666 35.925V38.3717H19.4155V36.106C19.4155 35.7958 19.3983 35.5374 19.3552 35.322C19.3122 35.1066 19.2433 34.9343 19.14 34.7965C19.0453 34.6586 18.9075 34.5639 18.7525 34.5036C18.589 34.4432 18.3909 34.4174 18.1498 34.4174C17.8915 34.4174 17.6677 34.4346 17.4783 34.4605C17.2888 34.4863 17.1683 34.5122 17.108 34.538V38.3804H16.557V34.159L16.5484 34.1503Z" fill="#3F762F"/>
<path d="M21.0945 36.1835C21.0945 35.8044 21.1461 35.4684 21.2581 35.1841C21.37 34.8998 21.5077 34.6586 21.6886 34.4691C21.8694 34.2796 22.0674 34.1331 22.2999 34.0383C22.5323 33.9436 22.7648 33.9005 23.0059 33.9005C23.5397 33.9005 23.9702 34.0728 24.2888 34.426C24.6073 34.7792 24.7623 35.3134 24.7623 36.037C24.7623 36.0801 24.7623 36.1232 24.7623 36.1749C24.7623 36.218 24.7623 36.261 24.7537 36.3041H21.6886C21.7058 36.8382 21.8349 37.2518 22.0846 37.5361C22.3343 37.8204 22.7304 37.9668 23.2642 37.9668C23.5655 37.9668 23.798 37.941 23.9702 37.8807C24.1424 37.8204 24.2715 37.7773 24.349 37.7342L24.4524 38.2081C24.3749 38.2511 24.2285 38.3028 24.0046 38.3717C23.7894 38.432 23.5311 38.4665 23.2383 38.4665C22.8595 38.4665 22.5323 38.4062 22.2568 38.2942C21.9899 38.1822 21.766 38.0271 21.5852 37.8204C21.4044 37.6136 21.2839 37.3724 21.2064 37.0967C21.1289 36.821 21.0859 36.5109 21.0859 36.1835H21.0945ZM24.1941 35.8303C24.1854 35.3737 24.0735 35.0205 23.8755 34.762C23.6688 34.5122 23.3847 34.3829 23.0145 34.3829C22.8165 34.3829 22.6443 34.426 22.4893 34.5036C22.3343 34.5811 22.1965 34.6845 22.0846 34.8223C21.9727 34.9515 21.878 35.1066 21.8177 35.2875C21.7574 35.4684 21.7144 35.6494 21.7058 35.8389H24.2113L24.1941 35.8303Z" fill="#3F762F"/>
<path d="M25.7266 36.1835C25.7266 35.8044 25.7783 35.4684 25.8902 35.1841C26.0022 34.8998 26.1399 34.6586 26.3207 34.4691C26.5015 34.2796 26.6996 34.1331 26.932 34.0383C27.1645 33.9436 27.397 33.9005 27.638 33.9005C28.1719 33.9005 28.6024 34.0728 28.9209 34.426C29.2395 34.7792 29.3945 35.3134 29.3945 36.037C29.3945 36.0801 29.3945 36.1232 29.3945 36.1749C29.3945 36.218 29.3945 36.261 29.3859 36.3041H26.3207C26.3379 36.8382 26.4671 37.2518 26.7168 37.5361C26.9665 37.8204 27.3625 37.9668 27.8964 37.9668C28.1977 37.9668 28.4302 37.941 28.6024 37.8807C28.7746 37.8204 28.9037 37.7773 28.9812 37.7342L29.0845 38.2081C29.007 38.2511 28.8607 38.3028 28.6368 38.3717C28.4216 38.432 28.1633 38.4665 27.8705 38.4665C27.4917 38.4665 27.1645 38.4062 26.889 38.2942C26.6221 38.1822 26.3982 38.0271 26.2174 37.8204C26.0366 37.6136 25.9161 37.3724 25.8386 37.0967C25.7611 36.821 25.718 36.5109 25.718 36.1835H25.7266ZM28.8262 35.8303C28.8176 35.3737 28.7057 35.0205 28.5077 34.762C28.301 34.5122 28.0169 34.3829 27.6467 34.3829C27.4486 34.3829 27.2764 34.426 27.1215 34.5036C26.9665 34.5811 26.8287 34.6845 26.7168 34.8223C26.6049 34.9515 26.5101 35.1066 26.4499 35.2875C26.3896 35.4684 26.3466 35.6494 26.3379 35.8389H28.8434L28.8262 35.8303Z" fill="#3F762F"/>
<path d="M32.1066 33.9177C32.2874 33.9177 32.4596 33.935 32.6146 33.9608C32.7782 33.9866 32.8901 34.0211 32.9504 34.047L32.8385 34.5208C32.7954 34.4949 32.7007 34.4777 32.563 34.4519C32.4252 34.426 32.2444 34.4174 32.0205 34.4174C31.7881 34.4174 31.59 34.4346 31.4523 34.4691C31.3059 34.5036 31.2112 34.5294 31.1681 34.5552V38.389H30.6171V34.2193C30.7549 34.1589 30.9529 34.09 31.2026 34.0297C31.4523 33.9694 31.7536 33.935 32.1066 33.935V33.9177Z" fill="#3F762F"/>
<path d="M34.4485 32.6771C34.4485 32.8064 34.4055 32.9098 34.328 32.9873C34.2505 33.0648 34.1558 33.0993 34.0439 33.0993C33.9319 33.0993 33.8372 33.0648 33.7597 32.9873C33.6823 32.9098 33.6392 32.8064 33.6392 32.6771C33.6392 32.5479 33.6823 32.4445 33.7597 32.367C33.8372 32.2895 33.9319 32.255 34.0439 32.255C34.1558 32.255 34.2505 32.2895 34.328 32.367C34.4055 32.4445 34.4485 32.5479 34.4485 32.6771ZM34.328 38.3717H33.777V34.0039H34.328V38.3717Z" fill="#3F762F"/>
<path d="M35.7831 34.1503C35.9467 34.1073 36.1619 34.0556 36.4461 33.9953C36.7216 33.935 37.0574 33.9091 37.462 33.9091C37.7978 33.9091 38.0734 33.9608 38.2972 34.0556C38.5211 34.1503 38.6933 34.2882 38.831 34.4691C38.9602 34.65 39.0549 34.8568 39.1152 35.1066C39.1754 35.3565 39.2013 35.6321 39.2013 35.925V38.3717H38.6502V36.106C38.6502 35.7958 38.633 35.5374 38.5899 35.322C38.5469 35.1066 38.478 34.9343 38.3747 34.7965C38.28 34.6586 38.1422 34.5639 37.9873 34.5036C37.8237 34.4432 37.6256 34.4174 37.3846 34.4174C37.1263 34.4174 36.9024 34.4346 36.713 34.4605C36.5236 34.4863 36.403 34.5122 36.3427 34.538V38.3804H35.7917V34.159L35.7831 34.1503Z" fill="#3F762F"/>
<path d="M43.4374 37.8635C43.4374 37.8635 43.3513 37.9238 43.2824 37.9582C43.2135 37.9927 43.1274 38.0358 43.0327 38.0702C42.938 38.1133 42.8175 38.1391 42.6969 38.165C42.5678 38.1908 42.43 38.1994 42.2664 38.1994C42.0167 38.1994 41.767 38.1564 41.5346 38.0788C41.3021 38.0013 41.0868 37.8721 40.9146 37.7084C40.7338 37.5361 40.5961 37.3207 40.4841 37.0536C40.3808 36.7866 40.3206 36.4592 40.3206 36.0801C40.3206 35.77 40.3722 35.4857 40.4669 35.2186C40.5616 34.9515 40.6994 34.7275 40.8802 34.5294C41.061 34.3313 41.2763 34.1848 41.5346 34.0728C41.7929 33.9608 42.077 33.9091 42.4042 33.9091C42.8088 33.9091 43.136 33.935 43.3771 33.9866C43.6182 34.0383 43.8248 34.09 43.9798 34.1417V38.1305C43.9798 38.7853 43.8076 39.2505 43.4718 39.5262C43.136 39.8019 42.628 39.9483 41.9392 39.9483C41.6551 39.9483 41.4054 39.9311 41.1729 39.888C40.9491 39.8449 40.7511 39.7932 40.5875 39.7415L40.6994 39.2419C40.8372 39.3022 41.018 39.3539 41.2504 39.4056C41.4829 39.4486 41.7154 39.4745 41.9565 39.4745C42.4731 39.4745 42.8519 39.3711 43.0844 39.1729C43.3168 38.9748 43.4374 38.6302 43.4374 38.1477V37.8635ZM43.4288 34.5294C43.334 34.5036 43.2049 34.4777 43.0585 34.4519C42.9035 34.426 42.6883 34.4174 42.4042 34.4174C42.1717 34.4174 41.9565 34.4605 41.7756 34.538C41.5948 34.6242 41.4399 34.7362 41.3107 34.8826C41.1816 35.0291 41.0782 35.21 41.018 35.4168C40.9491 35.6235 40.9146 35.8475 40.9146 36.0974C40.9146 36.3817 40.9577 36.6315 41.0352 36.8382C41.1127 37.045 41.216 37.2087 41.3451 37.3379C41.4743 37.4672 41.6207 37.5619 41.7843 37.6222C41.9478 37.6825 42.1114 37.7084 42.2836 37.7084C42.5333 37.7084 42.7572 37.6739 42.9638 37.5964C43.1705 37.5275 43.3254 37.4413 43.4374 37.3465V34.5294H43.4288Z" fill="#3F762F"/>
</g>
<defs>
<clipPath id="clip0_116_151">
<rect width="104" height="40" fill="white"/>
</clipPath>
</defs>
</svg>
